Coordinates
version=1
nRows=14
nColumns=36
inDegrees=yes

Units are S.I. units (second, meters, Newtons, ...)
If the header above contains a line with 'inDegrees', this indicates whether rotational values are in degrees (yes) or radians (no).

endheader
time	pelvis_tilt	pelvis_list	pelvis_rotation	pelvis_tx	pelvis_ty	pelvis_tz	hip_flexion_r	hip_adduction_r	hip_rotation_r	knee_angle_r	knee_angle_r_beta	ankle_angle_r	subtalar_angle_r	mtp_angle_r	hip_flexion_l	hip_adduction_l	hip_rotation_l	knee_angle_l	knee_angle_l_beta	ankle_angle_l	subtalar_angle_l	mtp_angle_l	lumbar_extension	lumbar_bending	lumbar_rotation	arm_flex_r	arm_add_r	arm_rot_r	elbow_flex_r	pro_sup_r	arm_flex_l	arm_add_l	arm_rot_l	elbow_flex_l	pro_sup_l
      6.73333330	    -31.43373644	     -3.55955625	      2.39722271	     -0.40015408	      0.72861364	      0.01185358	     85.68107432	    -12.45304875	     -4.00279640	     79.04377601	      1.37957414	     30.22226535	     -4.14030037	     -7.49999987	     88.43282053	    -11.45498849	      5.01798005	     77.44950194	      1.35174881	     30.37537504	     -7.89934387	     -7.49999987	     -6.61378332	      3.01846291	     -0.62915726	     74.75208449	     -4.50523018	     54.33279920	    135.47429342	    108.57764139	     82.83282491	      5.12550041	     60.53047279	    125.41817967	    100.70180954
      6.75000000	    -30.34234583	     -3.46738687	      2.23937960	     -0.40175996	      0.74220943	      0.01246938	     82.41762962	    -11.94241085	     -4.37725807	     76.37473428	      1.33299058	     29.84982785	     -4.34293832	     -7.49999987	     85.24637591	    -11.85280662	      4.51664242	     75.03891961	      1.30967621	     29.68810147	     -8.03550874	     -7.49999987	     -6.41712390	      2.83326356	     -1.12915893	     74.22798779	     -4.17034263	     54.74833909	    135.10494423	    109.09829938	     81.89752629	      4.59824864	     61.26044315	    125.84107494	    101.08298407
      6.76666670	    -28.97978366	     -3.53609055	      1.96529131	     -0.39561987	      0.74869034	      0.01581444	     79.11842319	    -11.25488590	     -4.80899204	     73.98365361	      1.29125835	     29.56285312	     -4.38383763	     -7.49999987	     82.01326274	    -12.39374900	      4.30872186	     72.84164265	      1.27132650	     29.22188125	     -8.20775372	     -7.49999987	     -5.71375852	      2.75498739	     -1.47608522	     72.81809215	     -3.59628240	     51.88777960	    133.08589084	    109.10706718	     81.58761145	      3.73156342	     59.67130630	    125.30373660	    101.05561944
      6.78333330	    -28.01117906	     -3.49750372	      1.84632343	     -0.39671127	      0.75781842	      0.01654481	     76.52928803	    -10.80651485	     -5.05962710	     71.97876158	      1.25626638	     29.34835104	     -4.12702944	     -7.49999987	     79.45938657	    -12.75682589	      3.95140071	     70.95745814	      1.23844127	     28.81103478	     -7.82781195	     -7.49999987	     -5.16036020	      2.50028872	     -2.59998959	     71.19419500	     -2.96148851	     47.72756036	    133.05822562	    109.27006010	     81.24872393	      2.15211163	     58.60806589	    125.49515728	    100.64597837
      6.80000000	    -27.15429354	     -3.31548671	      1.63707853	     -0.38981854	      0.76758989	      0.01180214	     74.14092178	    -10.50314327	     -5.25429708	     70.02505632	      1.22216779	     29.05920429	     -3.82664048	     -7.49999987	     76.96083528	    -13.03395573	      3.46553867	     69.13929075	      1.20670827	     28.23025281	     -7.81607758	     -7.49999987	     -3.88675936	      2.16647660	     -2.74574568	     69.96441880	     -2.31227012	     48.72834179	    134.53119148	    109.43209612	     78.91040959	      1.15645673	     58.39026122	    125.29578660	    100.55276745
      6.81666670	    -25.98024320	     -3.08854346	      1.56575536	     -0.39138424	      0.79173598	      0.01333843	     71.11434684	    -10.36260628	     -5.53548196	     67.53147774	      1.17864664	     28.50634688	     -3.62070980	     -7.49999987	     73.93671647	    -13.09231439	      2.88416922	     66.83338706	      1.16646265	     27.33092018	     -7.94867649	     -7.49999987	     -4.09473830	      2.11992379	     -3.18421573	     69.66776130	     -2.10154272	     49.62304314	    132.98505414	    110.06619094	     77.93961772	      0.36083993	     58.59189498	    125.66787851	     99.13278697
      6.83333330	    -25.05886859	     -2.90792917	      1.50841030	     -0.38449812	      0.81040943	      0.01556002	     67.85625759	    -10.22128677	     -6.04459914	     64.34496234	      1.12303145	     27.64481417	     -3.69586649	     -7.49999987	     70.72198808	    -13.19984945	      2.13897346	     63.88433728	      1.11499203	     25.91445277	     -8.15822864	     -7.49999987	     -3.83923316	      1.87741191	     -3.34378282	     68.43064453	     -1.46128185	     53.27346649	    134.22523751	    109.96012420	     76.15480638	     -0.48900899	     59.56210026	    125.97363463	     97.70116403
      6.85000000	    -24.64123797	     -2.75997121	      1.36943650	     -0.38450264	      0.81895451	      0.01680293	     65.51200296	    -10.00886345	     -6.44572742	     61.52632825	      1.07383700	     26.62412619	     -3.57554635	     -7.49999987	     68.31481978	    -13.43755558	      1.28665449	     61.20172298	      1.06817157	     24.49555879	     -8.02298503	     -7.49999987	     -2.56093044	      1.35064531	     -3.52016058	     67.30163007	      0.56499093	     55.15627751	    135.27599415	    110.08127184	     75.11251817	     -0.00869614	     59.25334813	    126.37988143	     97.66373022
      6.86666670	    -23.26439977	     -2.38374227	      1.40901297	     -0.37664898	      0.82852900	      0.02057709	     62.05558682	     -9.95148175	     -6.67636873	     58.69761749	      1.02446669	     25.80118634	     -3.78029234	     -7.49999987	     64.63262684	    -13.32335683	      0.39417936	     58.33956223	      1.01821745	     23.02559434	     -8.50379854	     -7.49999987	     -2.30344135	      0.93367851	     -3.78221083	     67.95240338	      1.61148070	     57.27151837	    134.39040680	    110.31954899	     74.34238584	      0.58129690	     59.86001823	    127.70151540	     97.77133119
      6.88333330	    -23.01442655	     -2.24495735	      1.36098202	     -0.37025957	      0.84055659	      0.02568639	     59.84211461	     -9.72675475	     -7.08227516	     55.99517679	      0.97730020	     25.07014936	     -3.64164984	     -7.49999987	     62.33240529	    -13.47542490	     -0.37320098	     55.65463936	      0.97135670	     21.87969643	     -8.15207915	     -7.49999987	     -0.79460931	      0.51080519	     -3.53506287	     66.90919677	      2.26756121	     57.41156054	    134.14849094	    109.93449142	     72.58923075	      0.18880103	     60.02251203	    127.62405842	     97.67292193
      6.90000000	    -21.59622790	     -1.91920428	      1.39994440	     -0.36336839	      0.85841744	      0.02929403	     56.21432004	     -9.57436296	     -7.40585221	     52.90123667	      0.92330076	     24.02128273	     -3.85870385	     -7.49999987	     58.31921330	    -13.43509040	     -1.37215033	     52.31240265	      0.91302367	     20.46803024	     -8.23749362	     -7.49999987	     -0.91029685	      0.03337431	     -3.40397753	     65.95776372	      3.81405428	     57.00616205	    133.67977557	    108.96373657	     70.53250190	      0.48903044	     58.87803755	    128.24749416	     97.20308216
      6.91666670	    -20.41875517	     -1.53233201	      1.34060896	     -0.35102608	      0.87511211	      0.02905188	     52.47704970	     -9.48093649	     -7.83337231	     49.36275195	      0.86154255	     22.72243604	     -3.87965098	     -7.49999987	     54.07788811	    -13.28221358	     -2.42191415	     48.37047386	      0.84422403	     19.10433340	     -7.97521135	     -7.49999987	     -0.26658654	     -0.65343242	     -3.15176735	     62.94020637	      3.67862176	     54.72980325	    132.78869216	    108.64688531	     68.49870195	      1.66412047	     60.77722407	    128.09017093	     98.04805762
      6.93333330	    -19.32223260	     -1.19518756	      1.28762366	     -0.34337537	      0.88608057	      0.03149994	     48.98029998	     -9.34037113	     -8.20451292	     46.07750473	      0.80420417	     21.39313439	     -3.91149195	     -7.49999987	     50.02890092	    -13.12895089	     -3.44565023	     44.50902314	      0.77682900	     17.85480080	     -7.40814117	     -7.49999987	      0.46288726	     -1.21777495	     -3.07896762	     61.22491369	      3.55408087	     54.65428671	    131.77607848	    108.20724305	     66.83441876	      1.68014911	     60.16204578	    126.90618656	     99.00304549
      6.95000000	    -18.89249256	     -0.95273761	      1.21934364	     -0.33109336	      0.89957995	      0.03090025	     46.13553020	     -9.22677261	     -8.79722471	     42.77644626	      0.74658983	     19.96465213	     -3.88356856	     -7.49999987	     46.69895603	    -12.93170443	     -4.39064348	     40.57553782	      0.70817673	     16.69630229	     -6.72585159	     -7.49999987	      1.77766438	     -1.85754434	     -3.15940894	     58.45525191	      3.52905701	     55.68710973	    131.53103133	    107.91855650	     64.44526560	      0.49867812	     59.25574579	    126.07587659	     98.84798088
